<svg id="Capa_1" data-name="Capa 1" xmlns="http://www.w3.org/2000/svg" viewBox="0 0 1920 1080"><defs><style>.cls-1{fill:#59b210;}</style></defs><title>Mesa de trabajo 2</title><path class="cls-1" d="M1152.06,102.05c-5.06.22,6.71,109.81-43.94,206.7-3,5.78-6.4,11.77-7.78,14.21-39,69.2-80.12,112.44-89.88,122.5-25.58,26.39-57.4,53.43-63.47,58.59-12.49,10.62-22.68,18.76-35.81,32.55a307.53,307.53,0,0,0-35.8,45.58,462.44,462.44,0,0,0-42.32,78.12C823,684.21,817,706.4,805.39,749.81c0,0-22.85,85.77-32.55,164.39-.07.58-.59,12.86-1.63,37.43,0,0-.64,15.35,3.26,29.3a37,37,0,0,0,3.25,8.14c1,1.78,5.69,9.43,14.9,12,7.56,2.12,17.89.7,22.54-5.5,5.48-7.33,1.28-19,0-22.79C802.59,935.43,802,841.7,833.06,777.48c25.43-52.64,74.87-22.79,170.89-97.65,71-55.36,103.69-115.34,110.68-128.58,15.64-29.64,30-66.58,41.5-137.53C1184.06,241.56,1157.79,101.79,1152.06,102.05Z"/><path class="cls-1" d="M800.51,678.2c14.42-45.81,35.8-78.43,52.08-100.91C927.68,473.67,977,471.85,1044.64,378.73c44.51-61.24,64.51-117.33,72.43-142.41,22-69.56,30.24-151.74,22-153.8-2.27-.57-5.64,5-8.14,9.76a582.26,582.26,0,0,1-84.63,112.3c-82.83,85.83-139.33,90.45-216.46,179-30.34,34.84-62.73,72-79.76,128.58C717.17,621.43,766,721.9,785.86,758A331.42,331.42,0,0,1,800.51,678.2Z"/></svg>