<svg id="Capa_1" data-name="Capa 1" xmlns="http://www.w3.org/2000/svg" viewBox="0 0 1920 1080"><defs><style>.cls-1{fill:#59b210;}</style></defs><title>Mesa de trabajo 5</title><path class="cls-1" d="M811.91,649.59,674.16,299.34H660.91L530.56,647.53H570.3l97.23-268.74L773.47,643.64l2.9,5.77-114.3-.55-164.55-.79c13.29,65,87.31,114.75,176.64,114.75,88.54,0,162-48.89,176.23-113.05Z"/><path class="cls-1" d="M1098.79,649.59l137.76-350.25h13.24l130.35,348.19H1340.4l-97.23-268.74L1137.23,643.64l-2.9,5.77,114.3-.55,164.55-.79c-13.29,65-87.3,114.75-176.63,114.75-88.55,0-162-48.89-176.24-113.05Z"/><path class="cls-1" d="M1131,908.61H1060.9c0-1.29.16-2.56.16-3.86,0-50.12-24.15-93.35-59.16-114.08V361.19q7.13-17.54,14.27-35.06l16.66-51.23c-17.36,19.27-34.52,30.43-44.17,34.37a100.05,100.05,0,0,1-19.87,5.66c-3.21.5-5.86.71-7.79.86a115.07,115.07,0,0,1-18.69.1,90.27,90.27,0,0,1-26.49-6.62c-22.92-9.44-37.11-27.51-42.06-34.37l16.67,51.23,12.15,35.06V794.62c-31.63,22-53,63-53,110.13,0,1.3.13,2.57.17,3.86H773.47c-33.48,0-61,30.89-62.73,69.39h483C1192,939.5,1164.49,908.61,1131,908.61Z"/><path class="cls-1" d="M1232,186.78c-1.17,0-2.33.08-3.48.18-23.32-48.88-72.72-82-128.24-82.94-51.24-.83-97.93,26-124.42,67.78a59.51,59.51,0,0,0-47.2,0c-26.49-41.74-73.18-68.61-124.42-67.78-58,.94-109.12,37.09-131,89.52a41.39,41.39,0,1,0,30.68,10.88c8.79-8.7,16.95-17.77,19.95-20.95,31.13-32.94,77.62-34.07,80.41-34.1,7.3-.07,52.81-.53,71.88,27.48,6.89,10.12,11.45,25.54,18.26,35.72a59.59,59.59,0,1,0,115.76,0c6.81-10.18,11.37-25.6,18.26-35.72,19.07-28,64.58-27.55,71.88-27.48,2.79,0,49.28,1.16,80.41,34.1,2.83,3,10.29,11.28,18.51,19.53a41.34,41.34,0,1,0,32.8-16.22Z"/></svg>